<svg width="27" height="22" viewBox="0 0 27 22" fill="none" xmlns="http://www.w3.org/2000/svg">
<path d="M3.21344 22C2.58482 22 2.04687 21.7848 1.59959 21.3543C1.15232 20.9238 0.928298 20.4057 0.927536 19.8V6.6C0.927536 5.995 1.15155 5.47727 1.59959 5.0468C2.04763 4.61633 2.58558 4.40073 3.21344 4.4H6.81374L8.92819 2.2H15.7859V4.4H9.92828L7.84239 6.6H3.21344V19.8H21.5007V9.9H23.7866V19.8C23.7866 20.405 23.5629 20.9231 23.1157 21.3543C22.6684 21.7855 22.13 22.0007 21.5007 22H3.21344ZM21.5007 6.6V4.4H19.2148V2.2H21.5007V0H23.7866V2.2H26.0725V4.4H23.7866V6.6H21.5007ZM12.357 18.15C13.7857 18.15 15.0003 17.6689 16.0008 16.7068C17.0012 15.7447 17.5011 14.5757 17.5003 13.2C17.5003 11.825 17.0005 10.6564 16.0008 9.6943C15.0011 8.73217 13.7865 8.25073 12.357 8.25C10.9284 8.25 9.71416 8.73143 8.71446 9.6943C7.71476 10.6572 7.21453 11.8257 7.21377 13.2C7.21377 14.575 7.714 15.7439 8.71446 16.7068C9.71493 17.6697 10.9291 18.1507 12.357 18.15ZM12.357 15.95C11.557 15.95 10.8807 15.6842 10.3283 15.1525C9.77588 14.6208 9.49967 13.97 9.49967 13.2C9.49967 12.43 9.77588 11.7792 10.3283 11.2475C10.8807 10.7158 11.557 10.45 12.357 10.45C13.1571 10.45 13.8334 10.7158 14.3858 11.2475C14.9382 11.7792 15.2144 12.43 15.2144 13.2C15.2144 13.97 14.9382 14.6208 14.3858 15.1525C13.8334 15.6842 13.1571 15.95 12.357 15.95Z" fill="white"/>
</svg>
