<svg width="21" height="21" viewBox="0 0 21 21" fill="none" xmlns="http://www.w3.org/2000/svg">
<path d="M9.13241 0.441165C9.77863 -0.147055 10.7895 -0.147055 11.4357 0.441165L19.555 7.83179C20.0574 8.28908 20.342 8.92531 20.342 9.5909V18.5791C20.342 19.9161 19.2162 21 17.8275 21H14.4749C13.0862 21 11.9604 19.9161 11.9604 18.5791V14.5444C11.9604 14.0988 11.5851 13.7375 11.1222 13.7375H9.4459C8.983 13.7375 8.60773 14.0988 8.60773 14.5444V18.5791C8.60773 19.9161 7.48196 21 6.09324 21H2.74058C1.35186 21 0.226089 19.9161 0.226089 18.5791V9.5909C0.226089 8.92531 0.51073 8.28908 1.01309 7.83179L9.13241 0.441165ZM10.2841 1.61391L2.16475 9.00454C1.9973 9.15696 1.90242 9.36904 1.90242 9.5909V18.5791C1.90242 19.0247 2.27768 19.3861 2.74058 19.3861H6.09324C6.55614 19.3861 6.9314 19.0247 6.9314 18.5791V14.5444C6.9314 13.2074 8.05718 12.1236 9.4459 12.1236H11.1222C12.5109 12.1236 13.6367 13.2074 13.6367 14.5444V18.5791C13.6367 19.0247 14.012 19.3861 14.4749 19.3861H17.8275C18.2904 19.3861 18.6657 19.0247 18.6657 18.5791V9.5909C18.6657 9.36904 18.5708 9.15696 18.4034 9.00454L10.2841 1.61391Z" fill="white"/>
</svg>
