<svg width="22" height="21" viewBox="0 0 22 21" fill="none" xmlns="http://www.w3.org/2000/svg">
<path d="M8.81963 15C8.42851 14.997 8.05411 14.849 7.7764 14.5875C7.49869 14.326 7.33968 13.9718 7.33333 13.6006V8.3961C7.33616 8.1416 7.41145 7.89256 7.55123 7.67537C7.691 7.45818 7.89006 7.28092 8.12731 7.16238C8.36456 7.04384 8.63116 6.98843 8.89889 7.00201C9.16661 7.0156 9.42547 7.09768 9.64806 7.23956L13.7171 9.82444C13.9194 9.95419 14.085 10.1291 14.1995 10.3337C14.314 10.5384 14.3739 10.7666 14.3739 10.9983C14.3739 11.2301 14.314 11.4583 14.1995 11.663C14.085 11.8676 13.9194 12.0425 13.7171 12.1722L9.64806 14.7571C9.40414 14.9157 9.11529 15.0004 8.81963 15ZM8.87445 8.47706V13.5196L12.8399 10.9983L8.87445 8.47706Z" fill="white"/>
<rect x="1.04276" y="0.75" width="19.6217" height="19.5" rx="4.25" stroke="white" stroke-width="1.5"/>
</svg>
